<?xml version="1.0" encoding="UTF-8" standalone="no"?>
<svg
   xmlns:dc="http://purl.org/dc/elements/1.1/"
   xmlns:cc="http://creativecommons.org/ns#"
   xmlns:rdf="http://www.w3.org/1999/02/22-rdf-syntax-ns#"
   xmlns:svg="http://www.w3.org/2000/svg"
   xmlns="http://www.w3.org/2000/svg"
   xmlns:xlink="http://www.w3.org/1999/xlink"
   xmlns:sodipodi="http://sodipodi.sourceforge.net/DTD/sodipodi-0.dtd"
   xmlns:inkscape="http://www.inkscape.org/namespaces/inkscape"
   width="720pt"
   height="504pt"
   viewBox="0 0 720 504"
   version="1.1"
   id="svg633"
   sodipodi:docname="tail_preprocessing.svg"
   inkscape:version="1.0.2-2 (e86c870879, 2021-01-15)">
  <sodipodi:namedview
     pagecolor="#ffffff"
     bordercolor="#666666"
     borderopacity="1"
     objecttolerance="10"
     gridtolerance="10"
     guidetolerance="10"
     inkscape:pageopacity="0"
     inkscape:pageshadow="2"
     inkscape:window-width="2560"
     inkscape:window-height="1377"
     id="namedview635"
     showgrid="false"
     inkscape:zoom="1.1041667"
     inkscape:cx="480"
     inkscape:cy="336"
     inkscape:window-x="-8"
     inkscape:window-y="-8"
     inkscape:window-maximized="1"
     inkscape:current-layer="axes_2"
     inkscape:document-rotation="0" />
  <metadata
     id="metadata2">
    <rdf:RDF>
      <cc:Work>
        <dc:type
           rdf:resource="http://purl.org/dc/dcmitype/StillImage" />
        <dc:date>2024-09-24T12:54:37.092965</dc:date>
        <dc:format>image/svg+xml</dc:format>
        <dc:creator>
          <cc:Agent>
            <dc:title>Matplotlib v3.9.2, https://matplotlib.org/</dc:title>
          </cc:Agent>
        </dc:creator>
      </cc:Work>
    </rdf:RDF>
  </metadata>
  <defs
     id="defs6">
    <style
       type="text/css"
       id="style4">*{stroke-linejoin: round; stroke-linecap: butt}</style>
  </defs>
  <g
     id="figure_1">
    <g
       id="axes_1"
       inkscape:export-filename="E:\Code\megabouts\megabouts\docs\source\_static\images\thumbnail_tail_preprocessing.png"
       inkscape:export-xdpi="200"
       inkscape:export-ydpi="200">
      <g
         id="patch_2">
        <path
           d="M 90 236.88  L 648 236.88  L 648 60.48  L 90 60.48  z "
           style="fill: #ffffff"
           id="path11" />
      </g>
      <g
         id="matplotlib.axis_1">
        <g
           id="xtick_1">
          <g
             id="line2d_1">
            <defs
               id="defs15">
              <path
                 id="m1b688e9e5a"
                 d="M 0 0  L 0 3.5  "
                 style="stroke: #000000; stroke-width: 0.8" />
            </defs>
            <g
               id="g19">
              <use
                 xlink:href="#m1b688e9e5a"
                 x="115.363636"
                 y="236.88"
                 style="stroke: #000000; stroke-width: 0.8"
                 id="use17" />
            </g>
          </g>
        </g>
        <g
           id="xtick_2">
          <g
             id="line2d_2">
            <g
               id="g25">
              <use
                 xlink:href="#m1b688e9e5a"
                 x="234.52166"
                 y="236.88"
                 style="stroke: #000000; stroke-width: 0.8"
                 id="use23" />
            </g>
          </g>
        </g>
        <g
           id="xtick_3">
          <g
             id="line2d_3">
            <g
               id="g31">
              <use
                 xlink:href="#m1b688e9e5a"
                 x="353.679683"
                 y="236.88"
                 style="stroke: #000000; stroke-width: 0.8"
                 id="use29" />
            </g>
          </g>
        </g>
        <g
           id="xtick_4">
          <g
             id="line2d_4">
            <g
               id="g37">
              <use
                 xlink:href="#m1b688e9e5a"
                 x="472.837706"
                 y="236.88"
                 style="stroke: #000000; stroke-width: 0.8"
                 id="use35" />
            </g>
          </g>
        </g>
        <g
           id="xtick_5">
          <g
             id="line2d_5">
            <g
               id="g43">
              <use
                 xlink:href="#m1b688e9e5a"
                 x="591.995729"
                 y="236.88"
                 style="stroke: #000000; stroke-width: 0.8"
                 id="use41" />
            </g>
          </g>
        </g>
      </g>
      <g
         id="line2d_15">
        <path
           d="M 115.363636 149.219317  L 122.172666 149.189503  L 125.577181 147.8531  L 139.195241 147.821437  L 146.004271 147.844568  L 149.408786 146.629207  L 193.66748 146.631422  L 197.071995 146.630436  L 200.47651 146.779242  L 203.881025 146.7792  L 207.28554 146.634916  L 210.690055 146.787322  L 217.499085 146.781568  L 220.9036 146.610276  L 224.308115 146.7782  L 227.71263 146.575824  L 237.926174 146.563579  L 241.330689 146.716213  L 244.735204 146.569305  L 248.139719 146.726336  L 251.544234 146.568374  L 254.948749 146.692419  L 288.993899 146.714712  L 292.398414 150.177553  L 295.802929 146.716998  L 302.611959 146.782435  L 306.016473 146.732685  L 309.420988 150.595316  L 312.825503 150.060868  L 316.230018 148.333977  L 319.634533 145.948049  L 323.039048 147.924371  L 326.443563 150.305618  L 329.848078 152.035842  L 333.252593 151.902758  L 336.657108 151.933791  L 340.061623 145.175863  L 343.466138 145.116306  L 346.870653 142.840923  L 350.275168 146.000981  L 353.679683 145.70855  L 357.084198 145.020393  L 360.488713 152.001158  L 363.893228 146.606651  L 367.297743 150.620615  L 370.702257 144.835748  L 377.511287 145.047747  L 380.915802 144.692151  L 384.320317 148.261335  L 387.724832 144.092692  L 391.129347 147.17759  L 394.533862 147.673701  L 397.938377 153.39895  L 401.342892 145.350449  L 404.747407 148.410483  L 408.151922 143.670374  L 411.556437 152.839648  L 414.960952 151.338803  L 418.365467 152.237147  L 421.769982 149.503493  L 425.174497 142.518769  L 428.579012 140.230971  L 431.983527 142.943323  L 435.388041 143.520805  L 438.792556 143.808505  L 442.197071 143.158109  L 445.601586 144.374224  L 449.006101 143.647368  L 452.410616 141.608552  L 455.815131 141.507095  L 459.219646 141.582251  L 462.624161 142.225315  L 466.028676 141.65411  L 476.242221 143.253123  L 479.646736 142.0989  L 483.051251 140.044215  L 486.455766 142.782629  L 489.860281 142.039133  L 496.669311 142.130288  L 500.073826 142.135853  L 506.882855 142.801433  L 510.28737 142.720416  L 513.691885 142.760856  L 517.0964 141.505231  L 520.500915 143.234835  L 523.90543 142.074581  L 527.309945 141.500227  L 530.71446 139.935425  L 534.118975 141.476691  L 540.928005 141.479227  L 547.737035 141.415766  L 554.546065 141.5305  L 557.95058 141.995042  L 568.164124 142.082522  L 571.568639 142.039718  L 574.973154 142.545762  L 578.377669 142.583301  L 581.782184 141.498954  L 591.995729 141.511668  L 598.804759 140.437849  L 602.209274 140.429463  L 605.613789 141.359821  L 609.018304 140.372261  L 612.422819 140.37779  L 615.827334 140.890458  L 619.231849 140.827541  L 622.636364 141.503665  L 622.636364 141.503665  "
           clip-path="url(#pb31d27d3d2)"
           style="fill: none; stroke: #d0e1f2; stroke-width: 1.5; stroke-linecap: square"
           id="path213" />
      </g>
      <g
         id="line2d_16">
        <path
           d="M 115.363636 148.331006  L 122.172666 148.334636  L 125.577181 148.669245  L 146.004271 148.670668  L 149.408786 147.457529  L 197.071995 147.463015  L 210.690055 147.434892  L 217.499085 147.440974  L 220.9036 147.251384  L 224.308115 147.431198  L 227.71263 147.237093  L 237.926174 147.21144  L 241.330689 147.384569  L 244.735204 147.217755  L 248.139719 147.394726  L 251.544234 147.214705  L 254.948749 147.351441  L 288.993899 147.362155  L 292.398414 146.622081  L 295.802929 147.371257  L 302.611959 147.422949  L 306.016473 147.365517  L 309.420988 147.034588  L 312.825503 146.501405  L 316.230018 146.90605  L 319.634533 144.323735  L 323.039048 146.537995  L 326.443563 146.597867  L 329.848078 147.461933  L 333.252593 149.078663  L 336.657108 152.644147  L 340.061623 150.551478  L 343.466138 150.247751  L 346.870653 146.088495  L 350.275168 144.649656  L 353.679683 141.961812  L 357.084198 144.597161  L 360.488713 146.524426  L 363.893228 147.960274  L 367.297743 152.224552  L 370.702257 152.421146  L 374.106772 150.000702  L 377.511287 148.329925  L 380.915802 145.00246  L 384.320317 143.438443  L 387.724832 144.127182  L 391.129347 147.18342  L 394.533862 148.203123  L 397.938377 153.271804  L 401.342892 149.811126  L 404.747407 149.334569  L 408.151922 146.249205  L 411.556437 147.878077  L 414.960952 147.836009  L 418.365467 148.927965  L 421.769982 147.504329  L 425.174497 144.905581  L 428.579012 145.10788  L 431.983527 144.630531  L 435.388041 145.508987  L 438.792556 145.560323  L 442.197071 145.103965  L 445.601586 144.782301  L 449.006101 145.517238  L 452.410616 144.913462  L 455.815131 144.807003  L 459.219646 144.893955  L 462.624161 145.468228  L 466.028676 144.935323  L 469.433191 145.468061  L 472.837706 144.47876  L 476.242221 145.072226  L 479.646736 145.367372  L 483.051251 145.130137  L 486.455766 145.751124  L 489.860281 145.310533  L 496.669311 145.406993  L 500.073826 145.41601  L 503.47834 145.805409  L 506.882855 145.708293  L 510.28737 144.545605  L 513.691885 145.701496  L 517.0964 144.789542  L 523.90543 145.37619  L 527.309945 144.814619  L 530.71446 145.099704  L 534.118975 144.806762  L 544.33252 144.754997  L 551.14155 144.787557  L 554.546065 144.854343  L 557.95058 145.317151  L 564.75961 145.371903  L 571.568639 145.336411  L 574.973154 145.840748  L 578.377669 145.860751  L 581.782184 144.808295  L 591.995729 144.841029  L 598.804759 143.917009  L 602.209274 143.910063  L 605.613789 144.645419  L 609.018304 143.853029  L 612.422819 143.859325  L 615.827334 144.378078  L 619.231849 144.325684  L 622.636364 145.018276  L 622.636364 145.018276  "
           clip-path="url(#pb31d27d3d2)"
           style="fill: none; stroke: #bdd7ec; stroke-width: 1.5; stroke-linecap: square"
           id="path216" />
      </g>
      <g
         id="line2d_17">
        <path
           d="M 115.363636 147.671505  L 122.172666 147.696966  L 125.577181 148.79397  L 146.004271 148.801759  L 149.408786 147.589861  L 197.071995 147.596665  L 207.28554 147.317312  L 210.690055 147.482586  L 217.499085 147.494455  L 220.9036 147.292525  L 224.308115 147.479568  L 227.71263 147.293497  L 237.926174 147.264447  L 241.330689 147.450207  L 244.735204 147.27111  L 248.139719 147.460424  L 251.544234 147.266651  L 254.948749 147.411118  L 288.993899 147.412397  L 292.398414 144.187233  L 295.802929 147.423764  L 302.611959 147.465569  L 306.016473 147.401742  L 309.420988 144.589923  L 312.825503 144.041429  L 316.230018 145.420878  L 319.634533 142.408354  L 323.039048 144.491392  L 326.443563 143.117647  L 329.848078 143.283325  L 333.252593 146.082025  L 336.657108 151.839129  L 340.061623 153.573149  L 343.466138 153.824251  L 346.870653 149.000176  L 350.275168 144.766208  L 353.679683 140.137856  L 357.084198 143.388867  L 360.488713 141.689077  L 363.893228 147.560145  L 370.702257 155.764874  L 374.106772 153.83987  L 377.511287 151.196263  L 380.915802 146.273359  L 384.320317 142.108772  L 387.724832 143.675194  L 391.129347 146.320308  L 394.533862 148.004297  L 397.938377 152.594938  L 401.342892 152.849541  L 404.747407 150.640922  L 408.151922 148.626449  L 411.556437 145.120329  L 414.960952 145.658563  L 418.365467 146.518399  L 421.769982 145.650738  L 425.174497 146.138639  L 428.579012 148.06483  L 431.983527 145.90067  L 435.388041 146.842001  L 438.792556 146.682314  L 442.197071 146.385922  L 445.601586 145.18437  L 449.006101 146.746611  L 459.219646 146.702879  L 462.624161 147.231749  L 466.028676 146.71553  L 469.433191 147.244277  L 472.837706 145.475401  L 476.242221 146.079316  L 483.051251 148.119121  L 486.455766 147.274358  L 489.860281 147.090241  L 496.669311 147.192247  L 500.073826 147.201521  L 503.47834 147.592268  L 506.882855 147.19472  L 510.28737 145.552669  L 513.691885 147.206462  L 517.0964 146.577111  L 520.500915 146.097085  L 523.90543 147.174504  L 527.309945 146.621351  L 530.71446 148.130059  L 534.118975 146.617015  L 544.33252 146.56402  L 551.14155 146.59834  L 554.546065 146.666727  L 557.95058 147.127774  L 564.75961 147.175937  L 571.568639 147.135236  L 574.973154 147.638463  L 578.377669 147.647864  L 581.782184 146.612956  L 591.995729 146.655747  L 595.400244 146.591223  L 598.804759 146.080878  L 602.209274 146.075478  L 605.613789 146.435455  L 609.018304 146.018946  L 612.422819 146.025254  L 615.827334 146.547669  L 619.231849 146.501038  L 622.636364 147.207424  L 622.636364 147.207424  "
           clip-path="url(#pb31d27d3d2)"
           style="fill: none; stroke: #a4cce3; stroke-width: 1.5; stroke-linecap: square"
           id="path219" />
      </g>
      <g
         id="line2d_18">
        <path
           d="M 115.363636 147.243018  L 122.172666 147.278502  L 125.577181 148.234264  L 146.004271 148.245063  L 149.408786 147.033468  L 197.071995 147.039019  L 207.28554 146.769553  L 210.690055 146.93594  L 217.499085 146.947721  L 220.9036 146.739149  L 224.308115 146.928933  L 227.71263 146.750697  L 237.926174 146.727979  L 241.330689 146.918798  L 244.735204 146.734756  L 248.139719 146.929101  L 251.544234 146.729578  L 254.948749 146.876972  L 288.993899 146.870838  L 292.398414 142.96975  L 295.802929 146.880087  L 302.611959 146.915732  L 306.016473 146.846694  L 309.420988 143.359635  L 312.825503 142.78193  L 316.230018 143.903462  L 319.634533 140.150759  L 323.039048 141.555592  L 326.443563 139.223105  L 329.848078 138.992653  L 333.252593 142.476509  L 336.657108 149.526618  L 340.061623 153.961158  L 343.466138 155.382741  L 346.870653 151.493119  L 350.275168 146.31071  L 353.679683 140.260937  L 357.084198 141.385678  L 360.488713 138.043934  L 363.893228 145.515473  L 367.297743 149.36201  L 370.702257 155.450816  L 374.106772 155.814083  L 377.511287 153.545705  L 380.915802 148.583665  L 384.320317 143.859877  L 387.724832 142.748112  L 391.129347 144.574328  L 394.533862 147.085716  L 397.938377 151.360711  L 401.342892 154.129623  L 404.747407 152.307774  L 408.151922 150.770998  L 411.556437 144.711749  L 418.365467 145.153764  L 421.769982 143.977089  L 425.174497 146.216336  L 428.579012 148.974882  L 431.983527 146.731286  L 435.388041 147.503489  L 438.792556 147.1649  L 442.197071 146.98929  L 445.601586 145.580411  L 449.006101 147.322581  L 452.410616 146.998993  L 455.815131 146.890297  L 459.219646 146.993663  L 462.624161 147.502111  L 466.028676 146.981032  L 469.433191 147.514909  L 472.837706 145.65881  L 476.242221 146.271325  L 479.646736 147.438028  L 483.051251 148.88102  L 486.455766 147.351614  L 500.073826 147.476912  L 503.47834 147.867763  L 506.882855 147.260441  L 510.28737 145.738336  L 513.691885 147.274711  L 517.0964 146.852315  L 520.500915 146.285338  L 523.90543 147.453704  L 527.309945 146.903747  L 530.71446 148.89057  L 534.118975 146.891291  L 544.33252 146.84051  L 551.14155 146.878054  L 554.546065 146.950771  L 557.95058 147.409873  L 564.75961 147.459574  L 571.568639 147.419499  L 574.973154 147.922041  L 578.377669 147.9281  L 581.782184 146.89584  L 588.591214 146.953631  L 591.995729 146.939001  L 595.400244 147.382628  L 598.804759 146.869066  L 602.209274 146.865121  L 605.613789 146.713779  L 612.422819 146.814993  L 615.827334 147.338476  L 619.231849 147.292419  L 622.636364 148.008512  L 622.636364 148.008512  "
           clip-path="url(#pb31d27d3d2)"
           style="fill: none; stroke: #87bddc; stroke-width: 1.5; stroke-linecap: square"
           id="path222" />
      </g>
      <g
         id="line2d_19">
        <path
           d="M 115.363636 147.045795  L 125.577181 146.982981  L 146.004271 146.99332  L 149.408786 145.781074  L 203.881025 145.797653  L 207.28554 145.624166  L 210.690055 145.788114  L 217.499085 145.793844  L 220.9036 145.584341  L 224.308115 145.772346  L 227.71263 145.601884  L 237.926174 145.595509  L 241.330689 145.783749  L 244.735204 145.602165  L 248.139719 145.794166  L 251.544234 145.596953  L 254.948749 145.74244  L 288.993899 145.730843  L 292.398414 142.962061  L 295.802929 145.733436  L 302.611959 145.766579  L 306.016473 145.693476  L 309.420988 143.336433  L 312.825503 142.716359  L 316.230018 142.381274  L 319.634533 137.509192  L 323.039048 137.389827  L 326.443563 134.284276  L 329.848078 134.112426  L 333.252593 137.803582  L 336.657108 145.511747  L 340.061623 151.741468  L 343.466138 154.921483  L 346.870653 153.547332  L 350.275168 149.40264  L 353.679683 142.333425  L 357.084198 138.62577  L 360.488713 135.681347  L 363.893228 141.493964  L 367.297743 144.486352  L 370.702257 151.267597  L 374.106772 155.848178  L 377.511287 155.35437  L 380.915802 152.138021  L 384.320317 149.162976  L 387.724832 141.432756  L 391.129347 141.939472  L 394.533862 145.42449  L 401.342892 153.629397  L 404.747407 154.279934  L 408.151922 152.674715  L 411.556437 146.632294  L 414.960952 145.647922  L 418.365467 144.85317  L 421.769982 142.5034  L 428.579012 147.864383  L 431.983527 147.11717  L 435.388041 147.494655  L 438.792556 147.009325  L 442.197071 146.915421  L 445.601586 145.970419  L 449.006101 147.246375  L 452.410616 145.768093  L 455.815131 145.66206  L 459.219646 145.769857  L 462.624161 146.282279  L 466.028676 145.734675  L 469.433191 146.282959  L 472.837706 145.029997  L 479.646736 146.228252  L 483.051251 147.439916  L 486.455766 145.980802  L 493.264796 146.235412  L 500.073826 146.245347  L 503.47834 146.635069  L 510.28737 145.10364  L 513.691885 145.904101  L 517.0964 145.618362  L 520.500915 145.644959  L 523.90543 146.217112  L 527.309945 145.665176  L 530.71446 147.40601  L 534.118975 145.632809  L 540.928005 145.644728  L 547.737035 145.574137  L 554.546065 145.709936  L 557.95058 146.166838  L 564.75961 146.226256  L 571.568639 146.192638  L 574.973154 146.694904  L 578.377669 146.704791  L 581.782184 145.660348  L 591.995729 145.694229  L 595.400244 146.801764  L 598.804759 146.291697  L 602.209274 146.289124  L 605.613789 145.483687  L 609.018304 146.234458  L 612.422819 146.238687  L 615.827334 146.760724  L 619.231849 146.710142  L 622.636364 147.431996  L 622.636364 147.431996  "
           clip-path="url(#pb31d27d3d2)"
           style="fill: none; stroke: #68acd5; stroke-width: 1.5; stroke-linecap: square"
           id="path225" />
      </g>
      <g
         id="line2d_20">
        <path
           d="M 115.363636 147.075007  L 122.172666 147.09538  L 125.577181 145.060299  L 146.004271 145.066463  L 149.408786 143.852364  L 197.071995 143.846006  L 200.47651 144.071102  L 203.881025 144.064442  L 207.28554 143.895897  L 210.690055 144.053577  L 217.499085 144.047566  L 220.9036 143.843512  L 224.308115 144.024799  L 227.71263 143.862139  L 237.926174 143.882041  L 241.330689 144.059589  L 244.735204 143.888323  L 248.139719 144.07017  L 251.544234 143.883774  L 254.948749 144.022798  L 288.993899 144.008055  L 292.398414 144.138186  L 295.802929 143.999449  L 302.611959 144.033949  L 306.016473 143.958374  L 309.420988 144.493776  L 312.825503 143.818738  L 316.230018 140.926258  L 319.634533 134.7323  L 323.039048 131.818331  L 326.443563 127.737899  L 329.848078 128.280054  L 333.252593 131.703813  L 336.657108 139.815578  L 340.061623 147.277555  L 343.466138 152.577891  L 346.870653 155.179005  L 350.275168 153.760875  L 353.679683 146.062827  L 357.084198 135.623214  L 360.488713 134.49949  L 363.893228 135.357959  L 367.297743 136.579146  L 370.702257 142.908132  L 374.106772 154.073991  L 377.511287 156.640012  L 380.915802 156.887588  L 384.320317 155.995376  L 387.724832 141.124301  L 391.129347 138.699144  L 401.342892 151.425733  L 404.747407 156.341835  L 408.151922 154.306123  L 411.556437 150.575689  L 414.960952 147.694071  L 418.365467 145.596036  L 421.769982 141.537903  L 425.174497 142.967096  L 431.983527 147.0553  L 435.388041 146.846867  L 438.792556 146.301656  L 442.197071 146.233423  L 445.601586 146.347691  L 449.006101 146.586039  L 452.410616 143.297133  L 455.815131 143.195798  L 459.219646 143.296901  L 462.624161 143.848676  L 466.028676 143.263367  L 469.433191 143.827937  L 472.837706 143.625223  L 476.242221 144.249148  L 479.646736 143.793404  L 483.051251 144.229354  L 486.455766 143.534716  L 493.264796 143.79785  L 500.073826 143.794198  L 503.47834 144.184349  L 506.882855 143.490229  L 510.28737 143.687579  L 517.0964 143.158923  L 520.500915 144.214836  L 527.309945 143.19893  L 530.71446 144.131331  L 534.118975 143.135921  L 540.928005 143.148291  L 547.737035 143.086367  L 554.546065 143.231774  L 557.95058 143.694729  L 564.75961 143.755501  L 571.568639 143.73907  L 574.973154 144.244959  L 578.377669 144.265238  L 581.782184 143.201487  L 591.995729 143.210735  L 595.400244 144.891785  L 598.804759 144.390782  L 602.209274 144.389521  L 605.613789 143.029659  L 609.018304 144.336868  L 612.422819 144.339112  L 615.827334 144.856866  L 619.231849 144.798349  L 622.636364 145.521942  L 622.636364 145.521942  "
           clip-path="url(#pb31d27d3d2)"
           style="fill: none; stroke: #4e9acb; stroke-width: 1.5; stroke-linecap: square"
           id="path228" />
      </g>
      <g
         id="line2d_21">
        <path
           d="M 115.363636 147.105386  L 122.172666 147.107729  L 125.577181 143.600553  L 146.004271 143.597963  L 149.408786 142.380228  L 197.071995 142.35642  L 200.47651 142.725409  L 203.881025 142.721249  L 207.28554 142.562151  L 210.690055 142.712114  L 217.499085 142.699337  L 220.9036 142.50806  L 224.308115 142.680113  L 227.71263 142.522516  L 237.926174 142.562435  L 241.330689 142.724895  L 244.735204 142.568325  L 248.139719 142.735713  L 251.544234 142.564451  L 254.948749 142.699139  L 288.993899 142.687834  L 292.398414 145.74729  L 295.802929 142.66804  L 302.611959 142.70502  L 306.016473 142.633887  L 309.420988 146.087834  L 312.825503 145.389261  L 316.230018 140.712095  L 319.634533 133.787752  L 323.039048 127.612281  L 326.443563 121.723054  L 329.848078 122.839147  L 333.252593 125.304169  L 340.061623 141.89745  L 346.870653 155.981491  L 350.275168 157.599375  L 353.679683 150.336158  L 357.084198 135.369567  L 360.488713 134.244026  L 363.893228 129.827593  L 367.297743 129.607125  L 370.702257 135.001583  L 374.106772 150.764766  L 377.511287 157.364831  L 380.915802 160.216936  L 384.320317 160.287191  L 387.724832 143.972218  L 391.129347 137.574148  L 394.533862 140.150028  L 397.938377 144.284467  L 401.342892 147.856058  L 404.747407 156.131526  L 408.151922 154.938996  L 411.556437 154.85681  L 414.960952 150.581616  L 418.365467 147.440201  L 421.769982 142.265794  L 425.174497 141.423374  L 428.579012 142.615938  L 431.983527 146.392579  L 435.388041 146.119947  L 438.792556 145.57595  L 442.197071 145.502124  L 445.601586 146.502791  L 449.006101 145.88883  L 452.410616 141.869408  L 455.815131 141.773239  L 459.219646 141.857524  L 462.624161 142.459345  L 466.028676 141.862344  L 469.433191 142.431604  L 472.837706 142.592186  L 476.242221 143.213401  L 479.646736 142.396374  L 486.455766 142.305164  L 500.073826 142.421145  L 503.47834 142.817532  L 506.882855 142.288702  L 510.28737 142.666852  L 513.691885 142.288734  L 517.0964 141.782499  L 520.500915 143.181287  L 523.90543 142.35306  L 527.309945 141.825664  L 530.71446 142.214624  L 534.118975 141.751364  L 544.33252 141.718881  L 551.14155 141.784411  L 554.546065 141.848023  L 557.95058 142.326305  L 568.164124 142.39588  L 571.568639 142.367151  L 574.973154 142.88205  L 578.377669 142.910862  L 581.782184 141.8411  L 591.995729 141.823457  L 595.400244 143.237899  L 598.804759 142.740185  L 602.209274 142.739542  L 605.613789 141.659666  L 609.018304 142.69026  L 612.422819 142.691544  L 615.827334 143.202864  L 619.231849 143.145606  L 622.636364 143.865626  L 622.636364 143.865626  "
           clip-path="url(#pb31d27d3d2)"
           style="fill: none; stroke: #3787c0; stroke-width: 1.5; stroke-linecap: square"
           id="path231" />
      </g>
      <g
         id="patch_3">
        <path
           d="M 90 236.88  L 90 60.48  "
           style="fill: none; stroke: #000000; stroke-width: 0.8; stroke-linejoin: miter; stroke-linecap: square"
           id="path234" />
      </g>
      <g
         id="patch_4">
        <path
           d="M 648 236.88  L 648 60.48  "
           style="fill: none; stroke: #000000; stroke-width: 0.8; stroke-linejoin: miter; stroke-linecap: square"
           id="path237" />
      </g>
      <g
         id="patch_5">
        <path
           d="M 90 236.88  L 648 236.88  "
           style="fill: none; stroke: #000000; stroke-width: 0.8; stroke-linejoin: miter; stroke-linecap: square"
           id="path240" />
      </g>
      <g
         id="patch_6">
        <path
           d="M 90 60.48  L 648 60.48  "
           style="fill: none; stroke: #000000; stroke-width: 0.8; stroke-linejoin: miter; stroke-linecap: square"
           id="path243" />
      </g>
    </g>
    <g
       id="axes_2">
      <g
         id="patch_7"
         inkscape:export-filename="E:\Code\megabouts\megabouts\docs\source\_static\images\thumbnail_tail_preprocessing.png"
         inkscape:export-xdpi="200"
         inkscape:export-ydpi="200">
        <path
           d="M 90 448.56  L 648 448.56  L 648 272.16  L 90 272.16  z "
           style="fill: #ffffff"
           id="path272" />
      </g>
      <g
         id="line2d_36"
         inkscape:export-filename="E:\Code\megabouts\megabouts\docs\source\_static\images\thumbnail_tail_preprocessing.png"
         inkscape:export-xdpi="200"
         inkscape:export-ydpi="200">
        <path
           d="M 115.363636 360.4033  L 142.599756 360.481874  L 169.835876 360.37852  L 309.420988 360.296641  L 316.230018 359.970038  L 323.039048 359.505966  L 326.443563 359.386548  L 329.848078 359.39017  L 333.252593 359.528288  L 343.466138 360.478041  L 346.870653 360.581585  L 350.275168 360.495614  L 360.488713 359.899928  L 363.893228 359.9277  L 370.702257 360.313465  L 377.511287 360.719318  L 384.320317 360.608225  L 394.533862 360.341365  L 411.556437 360.663867  L 435.388041 360.276437  L 462.624161 360.334731  L 476.242221 360.346275  L 534.118975 360.351335  L 561.355095 360.365826  L 574.973154 360.39147  L 609.018304 360.320989  L 622.636364 360.398861  L 622.636364 360.398861  "
           clip-path="url(#pf5dc7566df)"
           style="fill: none; stroke: #d0e1f2; stroke-width: 1.5; stroke-linecap: square"
           id="path512" />
      </g>
      <g
         id="line2d_37"
         inkscape:export-filename="E:\Code\megabouts\megabouts\docs\source\_static\images\thumbnail_tail_preprocessing.png"
         inkscape:export-xdpi="200"
         inkscape:export-ydpi="200">
        <path
           d="M 115.363636 360.534956  L 135.790726 361.594629  L 139.195241 361.540422  L 146.004271 361.194796  L 156.217816 360.793485  L 163.026846 360.710937  L 169.835876 360.775328  L 203.881025 360.671526  L 227.71263 360.576591  L 244.735204 360.581094  L 271.971324 360.622332  L 275.375839 360.812545  L 282.184869 360.385735  L 288.993899 360.184203  L 292.398414 360.331896  L 295.802929 360.345861  L 299.207444 360.106298  L 302.611959 360.082535  L 306.016473 359.797088  L 309.420988 359.655272  L 319.634533 357.798787  L 323.039048 357.586731  L 326.443563 358.007543  L 329.848078 358.884799  L 333.252593 359.933409  L 336.657108 361.215551  L 343.466138 361.821968  L 346.870653 361.077352  L 353.679683 358.558593  L 357.084198 358.263833  L 360.488713 358.808986  L 367.297743 361.737418  L 370.702257 362.588147  L 374.106772 362.441555  L 377.511287 362.120577  L 380.915802 360.844283  L 384.320317 359.90533  L 387.724832 359.629084  L 391.129347 360.006546  L 397.938377 361.599813  L 401.342892 361.959682  L 404.747407 361.845063  L 408.151922 361.32  L 414.960952 360.129149  L 418.365467 359.838624  L 425.174497 359.960032  L 428.579012 360.197861  L 438.792556 359.947137  L 445.601586 359.77686  L 449.006101 359.993164  L 452.410616 360.007742  L 455.815131 360.242857  L 462.624161 360.37716  L 466.028676 360.195411  L 479.646736 360.397246  L 493.264796 360.783922  L 500.073826 360.504613  L 503.47834 360.517091  L 513.691885 360.193437  L 534.118975 360.4824  L 544.33252 360.257757  L 547.737035 360.193962  L 554.546065 360.404776  L 561.355095 360.538353  L 568.164124 360.740832  L 574.973154 360.678678  L 598.804759 360.234399  L 609.018304 360.177051  L 622.636364 360.556634  L 622.636364 360.556634  "
           clip-path="url(#pf5dc7566df)"
           style="fill: none; stroke: #bdd7ec; stroke-width: 1.5; stroke-linecap: square"
           id="path515" />
      </g>
      <g
         id="line2d_38"
         inkscape:export-filename="E:\Code\megabouts\megabouts\docs\source\_static\images\thumbnail_tail_preprocessing.png"
         inkscape:export-xdpi="200"
         inkscape:export-ydpi="200">
        <path
           d="M 115.363636 361.021711  L 135.790726 362.094181  L 139.195241 361.993975  L 149.408786 361.244754  L 156.217816 360.834521  L 163.026846 360.700236  L 169.835876 360.809612  L 203.881025 360.717237  L 227.71263 360.577799  L 237.926174 360.570848  L 258.353264 360.644972  L 271.971324 360.676915  L 275.375839 360.961932  L 282.184869 360.326705  L 288.993899 360.029756  L 292.398414 360.248919  L 295.802929 360.277809  L 299.207444 359.981293  L 302.611959 359.95043  L 306.016473 359.424507  L 309.420988 359.049872  L 319.634533 355.758403  L 323.039048 355.548718  L 326.443563 356.538314  L 329.848078 358.480848  L 333.252593 360.79805  L 336.657108 363.266349  L 340.061623 363.928364  L 343.466138 364.053523  L 346.870653 362.334581  L 353.679683 357.244773  L 357.084198 356.551716  L 360.488713 357.653214  L 367.297743 363.305025  L 370.702257 365.267654  L 374.106772 365.165093  L 377.511287 364.154952  L 380.915802 361.67306  L 384.320317 359.782902  L 387.724832 359.033803  L 391.129347 359.792835  L 394.533862 361.560018  L 397.938377 363.200351  L 401.342892 364.076978  L 404.747407 364.083552  L 408.151922 362.894813  L 411.556437 361.2384  L 414.960952 359.869997  L 418.365467 359.103236  L 421.769982 359.094253  L 425.174497 359.509297  L 428.579012 360.217174  L 438.792556 360.31228  L 445.601586 359.798287  L 449.006101 359.979484  L 452.410616 359.914265  L 455.815131 360.160418  L 459.219646 360.249676  L 462.624161 360.219736  L 466.028676 359.93291  L 493.264796 360.889137  L 500.073826 360.455924  L 503.47834 360.470528  L 513.691885 359.958402  L 523.90543 360.310019  L 527.309945 360.470113  L 530.71446 360.37075  L 537.52349 360.3023  L 540.928005 360.08478  L 547.737035 359.911466  L 554.546065 360.252772  L 561.355095 360.469748  L 564.75961 360.696733  L 571.568639 360.793892  L 588.591214 360.229538  L 595.400244 360.019858  L 609.018304 359.940587  L 622.636364 360.571541  L 622.636364 360.571541  "
           clip-path="url(#pf5dc7566df)"
           style="fill: none; stroke: #a4cce3; stroke-width: 1.5; stroke-linecap: square"
           id="path518" />
      </g>
      <g
         id="line2d_39"
         inkscape:export-filename="E:\Code\megabouts\megabouts\docs\source\_static\images\thumbnail_tail_preprocessing.png"
         inkscape:export-xdpi="200"
         inkscape:export-ydpi="200">
        <path
           d="M 115.363636 361.263995  L 135.790726 361.986038  L 139.195241 361.865898  L 156.217816 360.62292  L 163.026846 360.472391  L 166.431361 360.588373  L 203.881025 360.525077  L 231.117145 360.348083  L 271.971324 360.501494  L 275.375839 360.76903  L 282.184869 360.175887  L 288.993899 359.902139  L 292.398414 360.10321  L 295.802929 360.141528  L 299.207444 359.90116  L 302.611959 359.936105  L 309.420988 358.945924  L 316.230018 356.207495  L 319.634533 354.665507  L 323.039048 354.069184  L 326.443563 354.827334  L 329.848078 356.816717  L 333.252593 359.501625  L 336.657108 362.597579  L 340.061623 363.977895  L 343.466138 364.580814  L 346.870653 363.036006  L 350.275168 360.329683  L 353.679683 357.3964  L 357.084198 356.13494  L 360.488713 356.837379  L 363.893228 359.478397  L 367.297743 362.592244  L 370.702257 365.190025  L 374.106772 365.709118  L 377.511287 364.970455  L 380.915802 362.556907  L 384.320317 360.524454  L 387.724832 359.439391  L 391.129347 359.914  L 397.938377 363.378745  L 401.342892 364.513666  L 404.747407 364.897551  L 408.151922 363.820025  L 411.556437 362.017784  L 414.960952 360.381928  L 418.365467 359.346403  L 421.769982 359.11304  L 425.174497 359.460987  L 428.579012 360.170922  L 435.388041 360.411957  L 438.792556 360.562498  L 445.601586 359.949311  L 449.006101 360.029516  L 452.410616 359.888839  L 455.815131 360.067455  L 462.624161 360.032473  L 466.028676 359.754211  L 472.837706 360.03666  L 486.455766 360.445626  L 489.860281 360.703766  L 493.264796 360.760361  L 500.073826 360.339552  L 503.47834 360.344949  L 513.691885 359.826079  L 523.90543 360.169834  L 527.309945 360.320503  L 534.118975 360.213872  L 537.52349 360.110874  L 540.928005 359.888016  L 547.737035 359.713312  L 554.546065 360.081168  L 561.355095 360.319056  L 564.75961 360.568937  L 568.164124 360.6817  L 574.973154 360.565168  L 585.186699 360.203759  L 595.400244 359.863446  L 602.209274 359.833172  L 609.018304 359.813834  L 622.636364 360.533215  L 622.636364 360.533215  "
           clip-path="url(#pf5dc7566df)"
           style="fill: none; stroke: #87bddc; stroke-width: 1.5; stroke-linecap: square"
           id="path521" />
      </g>
      <g
         id="line2d_40"
         inkscape:export-filename="E:\Code\megabouts\megabouts\docs\source\_static\images\thumbnail_tail_preprocessing.png"
         inkscape:export-xdpi="200"
         inkscape:export-ydpi="200">
        <path
           d="M 115.363636 361.759021  L 118.768151 361.719877  L 125.577181 361.488555  L 128.981696 361.414577  L 132.386211 361.476388  L 139.195241 361.269933  L 146.004271 360.833113  L 156.217816 360.098874  L 163.026846 359.948842  L 166.431361 360.07233  L 220.9036 360.114265  L 234.52166 360.056754  L 271.971324 360.244462  L 275.375839 360.419099  L 282.184869 360.045236  L 288.993899 359.882524  L 295.802929 360.055885  L 299.207444 360.011304  L 302.611959 360.192759  L 306.016473 359.751322  L 309.420988 359.118493  L 312.825503 357.523268  L 316.230018 355.536834  L 319.634533 353.257431  L 323.039048 351.914329  L 326.443563 352.084863  L 329.848078 353.96072  L 333.252593 357.169271  L 336.657108 361.252199  L 340.061623 364.07216  L 343.466138 365.570221  L 346.870653 364.565052  L 350.275168 361.923234  L 353.679683 358.403928  L 357.084198 356.004748  L 360.488713 355.720158  L 363.893228 357.703473  L 367.297743 360.913656  L 370.702257 364.654346  L 374.106772 366.53961  L 377.511287 366.424745  L 380.915802 364.488429  L 384.320317 362.393366  L 387.724832 360.649256  L 391.129347 360.421556  L 394.533862 361.819528  L 397.938377 363.607369  L 401.342892 365.205524  L 404.747407 366.433655  L 408.151922 365.712279  L 414.960952 361.647291  L 418.365467 360.09935  L 421.769982 359.372075  L 425.174497 359.572626  L 428.579012 360.241402  L 431.983527 360.527295  L 435.388041 361.009886  L 438.792556 361.364837  L 442.197071 361.093792  L 445.601586 360.565023  L 455.815131 359.990015  L 466.028676 359.488037  L 469.433191 359.748739  L 476.242221 359.93753  L 486.455766 360.171073  L 489.860281 360.380164  L 493.264796 360.409842  L 500.073826 360.093833  L 503.47834 360.073773  L 513.691885 359.630394  L 530.71446 359.874554  L 537.52349 359.705557  L 540.928005 359.51071  L 547.737035 359.363014  L 554.546065 359.724703  L 561.355095 359.967294  L 564.75961 360.224985  L 568.164124 360.341336  L 574.973154 360.217317  L 581.782184 359.944505  L 595.400244 359.586693  L 602.209274 359.618989  L 609.018304 359.624064  L 622.636364 360.424318  L 622.636364 360.424318  "
           clip-path="url(#pf5dc7566df)"
           style="fill: none; stroke: #68acd5; stroke-width: 1.5; stroke-linecap: square"
           id="path524" />
      </g>
      <g
         id="line2d_41"
         inkscape:export-filename="E:\Code\megabouts\megabouts\docs\source\_static\images\thumbnail_tail_preprocessing.png"
         inkscape:export-xdpi="200"
         inkscape:export-ydpi="200">
        <path
           d="M 115.363636 362.254771  L 118.768151 361.995044  L 125.577181 361.201025  L 128.981696 360.853788  L 146.004271 360.017422  L 156.217816 359.294549  L 163.026846 359.153353  L 166.431361 359.284133  L 200.47651 359.517394  L 210.690055 359.636296  L 251.544234 359.776013  L 288.993899 359.966781  L 295.802929 360.027463  L 299.207444 360.275511  L 302.611959 360.725039  L 306.016473 360.52309  L 309.420988 359.741529  L 312.825503 357.801219  L 316.230018 354.923556  L 319.634533 351.401365  L 323.039048 348.570466  L 326.443563 347.326553  L 329.848078 348.416095  L 333.252593 351.903403  L 340.061623 362.625326  L 343.466138 366.096912  L 346.870653 366.65119  L 350.275168 364.730475  L 353.679683 360.722424  L 357.084198 356.464983  L 360.488713 354.107944  L 363.893228 354.384401  L 367.297743 357.154253  L 370.702257 362.362071  L 374.106772 366.644781  L 377.511287 368.188761  L 380.915802 367.639336  L 384.320317 365.866093  L 387.724832 363.227694  L 391.129347 361.533347  L 394.533862 361.803709  L 397.938377 363.271645  L 401.342892 365.407325  L 404.747407 368.010892  L 408.151922 368.319515  L 411.556437 366.670037  L 414.960952 364.270687  L 418.365467 362.092643  L 421.769982 360.517791  L 425.174497 360.168178  L 428.579012 360.424467  L 431.983527 360.889544  L 435.388041 361.767556  L 438.792556 362.418333  L 442.197071 362.21447  L 449.006101 360.913358  L 452.410616 360.361564  L 462.624161 359.386345  L 466.028676 359.306778  L 469.433191 359.685054  L 476.242221 359.842294  L 486.455766 359.896098  L 489.860281 360.012466  L 500.073826 359.865927  L 520.500915 359.505871  L 527.309945 359.566401  L 547.737035 358.929703  L 554.546065 359.252085  L 561.355095 359.480471  L 564.75961 359.734739  L 568.164124 359.846754  L 571.568639 359.833839  L 591.995729 359.162772  L 609.018304 359.32902  L 612.422819 359.466625  L 619.231849 359.977197  L 622.636364 360.215028  L 622.636364 360.215028  "
           clip-path="url(#pf5dc7566df)"
           style="fill: none; stroke: #4e9acb; stroke-width: 1.5; stroke-linecap: square"
           id="path527" />
      </g>
      <g
         id="line2d_42"
         inkscape:export-filename="E:\Code\megabouts\megabouts\docs\source\_static\images\thumbnail_tail_preprocessing.png"
         inkscape:export-xdpi="200"
         inkscape:export-ydpi="200">
        <path
           d="M 115.363636 362.65034  L 118.768151 362.107897  L 128.981696 359.918252  L 135.790726 359.081296  L 139.195241 358.904605  L 142.599756 359.038304  L 156.217816 358.234836  L 163.026846 358.125067  L 169.835876 358.262282  L 193.66748 358.49711  L 214.09457 358.920102  L 227.71263 358.901992  L 241.330689 359.037002  L 258.353264 359.231812  L 271.971324 359.347266  L 275.375839 359.109752  L 282.184869 359.722735  L 288.993899 360.057167  L 292.398414 359.819599  L 295.802929 359.927813  L 299.207444 360.57536  L 302.611959 361.379425  L 306.016473 361.610898  L 309.420988 360.757241  L 312.825503 358.601688  L 316.230018 354.781779  L 323.039048 345.028957  L 326.443563 341.617853  L 329.848078 341.113383  L 333.252593 344.305937  L 336.657108 350.896477  L 340.061623 359.289592  L 343.466138 365.484524  L 346.870653 368.608814  L 350.275168 368.303274  L 353.679683 364.297895  L 357.084198 357.799726  L 360.488713 352.425305  L 363.893228 349.802111  L 367.297743 351.270856  L 370.702257 357.829248  L 374.106772 365.238267  L 377.511287 369.349936  L 380.915802 371.238547  L 384.320317 370.375429  L 387.724832 366.813881  L 391.129347 362.991614  L 394.533862 361.257779  L 397.938377 361.883563  L 401.342892 364.454975  L 404.747407 368.794793  L 408.151922 370.811828  L 411.556437 370.13926  L 414.960952 367.769523  L 421.769982 362.356079  L 425.174497 361.09677  L 428.579012 360.554148  L 431.983527 361.171981  L 435.388041 362.481539  L 438.792556 363.481132  L 442.197071 363.442522  L 445.601586 362.643707  L 449.006101 361.559499  L 455.815131 360.01138  L 459.219646 359.332255  L 462.624161 359.004171  L 466.028676 359.146196  L 469.433191 359.638626  L 476.242221 359.727259  L 496.669311 359.501355  L 500.073826 359.567735  L 503.47834 359.440514  L 513.691885 359.406334  L 523.90543 359.197412  L 540.928005 358.513876  L 547.737035 358.502238  L 568.164124 359.188109  L 574.973154 359.04633  L 578.377669 358.787122  L 585.186699 358.663895  L 588.591214 358.774982  L 591.995729 358.694639  L 612.422819 359.117105  L 622.636364 359.939809  L 622.636364 359.939809  "
           clip-path="url(#pf5dc7566df)"
           style="fill: none; stroke: #3787c0; stroke-width: 1.5; stroke-linecap: square"
           id="path530" />
      </g>
      <g
         id="patch_8"
         inkscape:export-filename="E:\Code\megabouts\megabouts\docs\source\_static\images\thumbnail_tail_preprocessing.png"
         inkscape:export-xdpi="200"
         inkscape:export-ydpi="200">
        <path
           d="M 90 448.56  L 90 272.16  "
           style="fill: none; stroke: #000000; stroke-width: 0.8; stroke-linejoin: miter; stroke-linecap: square"
           id="path533" />
      </g>
      <g
         id="patch_9"
         inkscape:export-filename="E:\Code\megabouts\megabouts\docs\source\_static\images\thumbnail_tail_preprocessing.png"
         inkscape:export-xdpi="200"
         inkscape:export-ydpi="200">
        <path
           d="M 648 448.56  L 648 272.16  "
           style="fill: none; stroke: #000000; stroke-width: 0.8; stroke-linejoin: miter; stroke-linecap: square"
           id="path536" />
      </g>
      <g
         id="patch_10"
         inkscape:export-filename="E:\Code\megabouts\megabouts\docs\source\_static\images\thumbnail_tail_preprocessing.png"
         inkscape:export-xdpi="200"
         inkscape:export-ydpi="200">
        <path
           d="M 90 448.56  L 648 448.56  "
           style="fill: none; stroke: #000000; stroke-width: 0.8; stroke-linejoin: miter; stroke-linecap: square"
           id="path539" />
      </g>
      <g
         id="patch_11"
         inkscape:export-filename="E:\Code\megabouts\megabouts\docs\source\_static\images\thumbnail_tail_preprocessing.png"
         inkscape:export-xdpi="200"
         inkscape:export-ydpi="200">
        <path
           d="M 90 272.16  L 648 272.16  "
           style="fill: none; stroke: #000000; stroke-width: 0.8; stroke-linejoin: miter; stroke-linecap: square"
           id="path542" />
      </g>
      <rect
         style="fill:none;stroke-width:0.359623;stroke-linecap:round;stroke-linejoin:round"
         id="rect910"
         width="180.13145"
         height="68.073723"
         x="286.51007"
         y="323.85077"
         inkscape:export-filename="E:\Code\megabouts\megabouts\docs\source\_static\images\thumbnail_tail_preprocessing.png"
         inkscape:export-xdpi="200"
         inkscape:export-ydpi="200" />
    </g>
    <g
       id="text_29">
      <!-- Tail Preprocessing -->
    </g>
  </g>
  <defs
     id="defs631">
    <clipPath
       id="pb31d27d3d2">
      <rect
         x="90"
         y="60.48"
         width="558"
         height="176.4"
         id="rect625" />
    </clipPath>
    <clipPath
       id="pf5dc7566df">
      <rect
         x="90"
         y="272.16"
         width="558"
         height="176.4"
         id="rect628" />
    </clipPath>
  </defs>
</svg>
