<?xml version="1.0" encoding="UTF-8" standalone="no"?>
<svg
   xmlns:dc="http://purl.org/dc/elements/1.1/"
   xmlns:cc="http://creativecommons.org/ns#"
   xmlns:rdf="http://www.w3.org/1999/02/22-rdf-syntax-ns#"
   xmlns:svg="http://www.w3.org/2000/svg"
   xmlns="http://www.w3.org/2000/svg"
   xmlns:sodipodi="http://sodipodi.sourceforge.net/DTD/sodipodi-0.dtd"
   xmlns:inkscape="http://www.inkscape.org/namespaces/inkscape"
   width="1080pt"
   height="288pt"
   viewBox="0 0 1080 288"
   version="1.1"
   id="svg552"
   sodipodi:docname="traj_preprocessing.svg"
   inkscape:version="1.0.2-2 (e86c870879, 2021-01-15)">
  <sodipodi:namedview
     pagecolor="#ffffff"
     bordercolor="#666666"
     borderopacity="1"
     objecttolerance="10"
     gridtolerance="10"
     guidetolerance="10"
     inkscape:pageopacity="0"
     inkscape:pageshadow="2"
     inkscape:window-width="2560"
     inkscape:window-height="1377"
     id="namedview554"
     showgrid="false"
     inkscape:zoom="0.73611111"
     inkscape:cx="720"
     inkscape:cy="192"
     inkscape:window-x="-8"
     inkscape:window-y="-8"
     inkscape:window-maximized="1"
     inkscape:current-layer="axes_1" />
  <metadata
     id="metadata2">
    <rdf:RDF>
      <cc:Work>
        <dc:type
           rdf:resource="http://purl.org/dc/dcmitype/StillImage" />
        <dc:date>2024-09-24T12:57:18.797254</dc:date>
        <dc:format>image/svg+xml</dc:format>
        <dc:creator>
          <cc:Agent>
            <dc:title>Matplotlib v3.9.2, https://matplotlib.org/</dc:title>
          </cc:Agent>
        </dc:creator>
      </cc:Work>
    </rdf:RDF>
  </metadata>
  <defs
     id="defs6">
    <style
       type="text/css"
       id="style4">*{stroke-linejoin: round; stroke-linecap: butt}</style>
  </defs>
  <g
     id="figure_1">
    <g
       id="axes_1">
      <g
         id="patch_2"
         inkscape:export-filename="E:\Code\megabouts\megabouts\docs\source\_static\images\thumbnail_traj_preprocessing.png"
         inkscape:export-xdpi="200"
         inkscape:export-ydpi="200">
        <path
           d="M 135 256.32  L 972 256.32  L 972 34.56  L 135 34.56  z "
           style="fill: #ffffff"
           id="path11" />
      </g>
      <g
         id="line2d_15"
         inkscape:export-filename="E:\Code\megabouts\megabouts\docs\source\_static\images\thumbnail_traj_preprocessing.png"
         inkscape:export-xdpi="200"
         inkscape:export-ydpi="200">
        <path
           d="M 173.045455 242.89621  L 175.222591 237.927685  L 176.311159 238.416578  L 177.399727 238.379104  L 178.488295 238.183573  L 179.576863 237.469795  L 180.665431 239.065051  L 181.753999 242.659187  L 182.842567 234.014854  L 183.931135 233.249391  L 185.019703 232.748868  L 186.108272 232.455634  L 187.19684 246.24  L 188.285408 228.155672  L 189.373976 228.122724  L 190.462544 227.487151  L 191.551112 227.266538  L 194.816816 227.050493  L 195.905384 241.240007  L 196.993952 235.954986  L 198.08252 235.11077  L 199.171089 235.234399  L 202.436793 234.748087  L 203.525361 234.787421  L 204.613929 222.515327  L 205.702497 234.886689  L 206.791065 222.366616  L 208.968201 222.301735  L 210.056769 222.021274  L 211.145337 222.007951  L 212.233906 222.130862  L 213.322474 222.054857  L 214.411042 222.379263  L 215.49961 221.954659  L 216.588178 222.05473  L 217.676746 221.48886  L 218.765314 221.643365  L 222.031018 221.266598  L 223.119586 221.695092  L 224.208155 235.536896  L 225.296723 229.859542  L 226.385291 229.758498  L 227.473859 229.880478  L 229.650995 229.460908  L 230.739563 221.132267  L 231.828131 220.964693  L 232.916699 216.621125  L 234.005267 216.780536  L 235.093835 216.464886  L 236.182403 215.974682  L 237.270972 216.21382  L 238.35954 216.100722  L 239.448108 215.753562  L 240.536676 215.576555  L 241.625244 215.561794  L 242.713812 229.694928  L 243.80238 224.441206  L 245.979516 224.192297  L 247.068084 224.408596  L 248.156652 224.043417  L 249.24522 215.911577  L 251.422357 215.736643  L 252.510925 223.747223  L 253.599493 206.949563  L 254.688061 215.508756  L 255.776629 215.626802  L 256.865197 223.705393  L 259.042333 223.740455  L 260.130901 215.645032  L 261.219469 215.491965  L 262.308037 215.08208  L 264.485174 214.873902  L 265.573742 211.167683  L 266.66231 211.013855  L 267.750878 210.523397  L 268.839446 210.560152  L 269.928014 210.74253  L 272.10515 210.718717  L 273.193718 210.899234  L 275.370854 210.659842  L 276.459423 210.902195  L 277.547991 225.420556  L 278.636559 205.366023  L 279.725127 225.167967  L 280.813695 210.719606  L 281.902263 210.631758  L 282.990831 218.598477  L 284.079399 210.723624  L 286.256535 210.758433  L 287.345103 218.49388  L 288.433671 210.420154  L 289.52224 210.181862  L 290.610808 201.950416  L 291.699376 201.908375  L 292.787944 209.914386  L 293.876512 201.478526  L 294.96508 209.755863  L 296.053648 209.780436  L 297.142216 209.551661  L 298.230784 205.00867  L 302.585057 205.382053  L 303.673625 205.599282  L 305.850761 205.330622  L 306.939329 205.362724  L 308.027897 204.452823  L 309.116465 219.105726  L 310.205033 199.147796  L 311.293601 219.378785  L 312.382169 213.886347  L 313.470737 205.368096  L 314.559306 213.877338  L 315.647874 213.898782  L 316.736442 213.660658  L 317.82501 214.200517  L 318.913578 204.833482  L 320.002146 213.524256  L 321.090714 204.769912  L 323.26785 204.512418  L 326.533554 204.729478  L 327.622123 204.506073  L 328.710691 195.811916  L 329.799259 204.141106  L 334.153531 203.917448  L 335.242099 200.030797  L 336.330667 199.537844  L 337.419235 199.427157  L 338.507803 199.513651  L 339.596371 199.480111  L 340.68494 198.958651  L 341.773508 198.898126  L 342.862076 198.722262  L 343.950644 198.895335  L 345.039212 198.762401  L 346.12778 213.40917  L 347.216348 207.860564  L 348.304916 207.593468  L 349.393484 208.222443  L 350.482052 207.841531  L 351.57062 207.735454  L 352.659188 207.858364  L 353.747757 207.820891  L 354.836325 190.53142  L 357.013461 190.333393  L 358.102029 190.541529  L 359.190597 198.672227  L 360.279165 198.705809  L 361.367733 199.033895  L 362.456301 193.49121  L 363.544869 198.987074  L 364.633437 194.604298  L 365.722005 204.954743  L 366.810574 189.144638  L 367.899142 190.417349  L 368.98771 188.22243  L 370.076278 197.192184  L 371.164846 196.675757  L 372.253414 203.000949  L 373.341982 203.03652  L 374.43055 200.434591  L 375.519118 213.165929  L 376.607686 198.92177  L 377.696254 193.377689  L 378.784822 182.906406  L 379.873391 187.413615  L 380.961959 180.590479  L 382.050527 185.738294  L 383.139095 192.643398  L 384.227663 193.068256  L 385.316231 183.226666  L 386.404799 183.02479  L 387.493367 190.667231  L 388.581935 174.334651  L 389.670503 166.912951  L 390.759071 170.89705  L 391.847639 168.909336  L 392.936208 166.560249  L 394.024776 165.619727  L 395.113344 166.82523  L 396.201912 160.543475  L 397.29048 174.441489  L 398.379048 155.670749  L 399.467616 154.995968  L 400.556184 154.899873  L 401.644752 154.533257  L 402.73332 154.892387  L 403.821888 156.301374  L 404.910456 150.483007  L 405.999025 149.787163  L 407.087593 150.087968  L 408.176161 149.681932  L 409.264729 148.971116  L 410.353297 148.555437  L 411.441865 162.963237  L 412.530433 149.400964  L 413.619001 149.249716  L 414.707569 149.298609  L 415.796137 148.883734  L 416.884705 144.270575  L 417.973274 144.252726  L 419.061842 144.024077  L 421.238978 143.963256  L 423.416114 144.355461  L 424.504682 143.795766  L 425.59325 143.580018  L 426.681818 143.658179  L 427.770386 143.556628  L 428.858954 143.813023  L 429.947522 143.250748  L 431.036091 157.713998  L 432.124659 151.69477  L 433.213227 143.81315  L 434.301795 143.69984  L 435.390363 134.9345  L 436.478931 143.204223  L 437.567499 143.507692  L 438.656067 138.948798  L 439.744635 138.746626  L 440.833203 138.873809  L 441.921771 138.614411  L 443.010339 138.186508  L 444.098908 138.590852  L 445.187476 138.141506  L 446.276044 137.919836  L 447.364612 137.492779  L 448.45318 137.920851  L 449.541748 143.484938  L 450.630316 138.169717  L 451.718884 137.952446  L 452.807452 146.234308  L 454.984588 129.431826  L 456.073156 137.920766  L 457.161725 133.398246  L 458.250293 145.738521  L 459.338861 133.043769  L 460.427429 133.464439  L 461.515997 133.273179  L 462.604565 132.716402  L 464.781701 133.234098  L 465.870269 132.990223  L 466.958837 133.029431  L 469.135973 132.71065  L 470.224542 132.971232  L 472.401678 133.195017  L 473.490246 132.914133  L 474.578814 132.757513  L 477.844518 133.04195  L 480.021654 132.865663  L 481.110222 132.484497  L 482.19879 133.20208  L 483.287359 132.029398  L 484.375927 132.486527  L 485.464495 132.320983  L 487.641631 132.559698  L 488.730199 132.598779  L 489.818767 131.567871  L 490.907335 132.260669  L 491.995903 137.926138  L 493.084471 132.400498  L 494.173039 132.371314  L 495.261607 141.08239  L 496.350176 140.698559  L 497.438744 140.766993  L 498.527312 132.329061  L 499.61588 132.066576  L 500.704448 127.849936  L 501.793016 127.774016  L 502.881584 127.361805  L 503.970152 127.698519  L 507.235856 127.385744  L 508.324425 127.558182  L 509.412993 127.494528  L 510.501561 127.120763  L 511.590129 126.953401  L 512.678697 127.600139  L 513.767265 127.472069  L 514.855833 127.691498  L 515.944401 127.476383  L 517.032969 126.521142  L 518.121537 126.535733  L 519.210105 132.905251  L 520.298673 117.59381  L 521.387242 118.239322  L 522.47581 112.194506  L 523.564378 105.390488  L 524.652946 109.948493  L 525.741514 119.682145  L 526.830082 127.989511  L 527.91865 140.554162  L 529.007218 144.337063  L 530.095786 133.613276  L 531.184354 130.163579  L 533.36149 103.946269  L 534.450059 95.711313  L 535.538627 89.833436  L 536.627195 88.856963  L 537.715763 112.546404  L 538.804331 115.879831  L 539.892899 128.926185  L 540.981467 112.199201  L 542.070035 105.381986  L 545.335739 88.522068  L 546.424307 82.044781  L 547.512876 107.461905  L 548.601444 96.714136  L 549.690012 103.489436  L 550.77858 94.200267  L 551.867148 93.438485  L 552.955716 101.832599  L 554.044284 79.377253  L 555.132852 82.131867  L 556.22142 73.425952  L 557.309988 73.396472  L 558.398556 71.686554  L 559.487124 87.822375  L 560.575693 73.955152  L 561.664261 73.231139  L 562.752829 72.023859  L 563.841397 72.258303  L 564.929965 90.812744  L 566.018533 85.177009  L 567.107101 76.3684  L 569.284237 76.2361  L 570.372805 75.849774  L 571.461373 67.532976  L 572.549941 66.920497  L 573.63851 66.967529  L 574.727078 66.85718  L 575.815646 66.966049  L 576.904214 66.227444  L 577.992782 66.531887  L 579.08135 77.25542  L 580.169918 62.718533  L 581.258486 71.143608  L 582.347054 62.26851  L 583.435622 71.243763  L 585.612758 71.059482  L 586.701327 62.507183  L 591.055599 62.065619  L 592.144167 62.317827  L 593.232735 62.199569  L 594.321303 70.167937  L 595.409871 61.800893  L 596.498439 61.31661  L 597.587007 61.545513  L 598.675575 60.992881  L 599.764144 69.985264  L 600.852712 79.955092  L 601.94128 65.805759  L 603.029848 74.353363  L 604.118416 65.890815  L 605.206984 65.560277  L 606.295552 65.739355  L 607.38412 65.476955  L 609.561256 65.215527  L 610.649824 56.823993  L 611.738393 65.683314  L 612.826961 56.601181  L 613.915529 64.887484  L 615.004097 56.6793  L 616.092665 56.592383  L 617.181233 64.912565  L 618.269801 56.421679  L 619.358369 55.981469  L 620.446937 64.342212  L 621.535505 64.573525  L 622.624073 56.179284  L 623.712641 56.031081  L 624.80121 64.421389  L 625.889778 56.370756  L 626.978346 56.266159  L 628.066914 72.705704  L 629.155482 72.879326  L 630.24405 72.698302  L 631.332618 56.091902  L 632.421186 72.937482  L 633.509754 72.608297  L 634.598322 72.635409  L 635.68689 56.055697  L 636.775458 72.828403  L 637.864027 74.956707  L 638.952595 69.705776  L 640.041163 58.749787  L 641.129731 74.094769  L 642.218299 69.159108  L 643.306867 69.04085  L 644.395435 59.986758  L 645.484003 68.295858  L 646.572571 68.417754  L 647.661139 68.405953  L 648.749707 68.78437  L 649.838275 60.333242  L 650.926844 68.254409  L 652.015412 68.337223  L 653.10398 60.344704  L 654.192548 68.311465  L 655.281116 59.681512  L 656.369684 59.977961  L 657.458252 59.815335  L 658.54682 67.873201  L 659.635388 67.627507  L 660.723956 67.911055  L 661.812524 51.156706  L 662.901092 67.086379  L 665.078229 50.834203  L 666.166797 67.23344  L 667.255365 67.489624  L 668.343933 50.890118  L 669.432501 50.88297  L 670.521069 50.677668  L 671.609637 67.611392  L 672.698205 59.013922  L 673.786773 67.198377  L 674.875341 50.506414  L 677.052478 50.651064  L 678.141046 50.264357  L 679.229614 59.069709  L 680.318182 59.023354  L 681.40675 50.601029  L 682.495318 50.610968  L 683.583886 50.474862  L 684.672454 50.492457  L 686.84959 67.159508  L 687.938158 50.721063  L 689.026726 50.778289  L 690.115295 50.4752  L 691.203863 50.570449  L 692.292431 50.519483  L 693.380999 59.085655  L 694.469567 59.0511  L 695.558135 67.135949  L 696.646703 50.7269  L 697.735271 50.781419  L 698.823839 50.539404  L 699.912407 50.635288  L 701.000975 67.254292  L 702.089544 58.812131  L 703.178112 68.78547  L 704.26668 63.650682  L 705.355248 54.537165  L 706.443816 62.834719  L 710.798088 62.490011  L 711.886656 62.648112  L 712.975224 62.5296  L 714.063792 54.016847  L 715.152361 54.034019  L 716.240929 53.798011  L 717.329497 45.57642  L 720.595201 45.442978  L 721.683769 45.08334  L 722.772337 61.859683  L 723.860905 44.64  L 724.949473 64.115889  L 726.038041 63.371405  L 727.126609 86.490662  L 728.215178 102.707014  L 729.303746 112.953878  L 730.392314 119.750071  L 731.480882 101.360117  L 732.56945 92.120179  L 733.658018 90.895305  L 734.746586 80.376439  L 735.835154 72.820705  L 736.923722 72.514824  L 738.01229 97.133242  L 739.100858 99.313019  L 740.189426 119.307957  L 741.277995 125.547882  L 742.366563 113.487053  L 743.455131 110.775199  L 744.543699 111.165882  L 745.632267 107.794769  L 746.720835 100.457068  L 748.897971 130.663426  L 749.986539 136.853273  L 751.075107 124.337599  L 752.163675 129.32871  L 753.252243 127.791484  L 754.340812 128.989078  L 755.42938 123.236566  L 756.517948 123.485389  L 757.606516 141.671945  L 758.695084 124.221372  L 759.783652 128.60474  L 760.87222 134.391173  L 761.960788 134.660891  L 763.049356 135.158369  L 764.137924 134.87444  L 765.226492 135.582592  L 766.31506 134.078145  L 767.403629 139.928317  L 768.492197 140.684475  L 769.580765 140.436243  L 770.669333 139.994764  L 772.846469 140.364298  L 775.023605 140.27662  L 776.112173 141.462752  L 777.200741 141.101338  L 778.289309 141.863459  L 779.377877 139.023492  L 780.466446 145.693476  L 781.555014 145.215708  L 782.643582 146.332264  L 783.73215 145.708322  L 784.820718 145.664335  L 785.909286 146.18  L 786.997854 147.212093  L 789.17499 147.422174  L 790.263558 147.398573  L 791.352126 145.647332  L 792.440694 151.697562  L 793.529263 151.307006  L 794.617831 152.038336  L 795.706399 151.90409  L 796.794967 152.324591  L 797.883535 152.89118  L 798.972103 152.258906  L 800.060671 152.589995  L 801.149239 152.150376  L 803.326375 152.778463  L 804.414943 152.994719  L 805.503512 152.480154  L 806.59208 152.777998  L 807.680648 152.896383  L 808.769216 152.672936  L 809.857784 150.40641  L 810.946352 156.343458  L 812.03492 158.645681  L 813.123488 150.138173  L 814.212056 156.088289  L 815.300624 156.53514  L 816.389192 156.019348  L 817.47776 155.653239  L 818.566329 156.299724  L 819.654897 156.679495  L 820.743465 156.160699  L 822.920601 156.562082  L 824.009169 156.776859  L 825.097737 156.532814  L 827.274873 156.792085  L 828.363441 157.369459  L 829.452009 157.583516  L 830.540577 156.55688  L 831.629146 157.514659  L 832.717714 157.602253  L 833.806282 158.077823  L 834.89485 157.30627  L 835.983418 157.905638  L 837.071986 157.734426  L 838.160554 157.763441  L 839.249122 158.158099  L 840.33769 158.141942  L 841.426258 158.431116  L 842.514826 158.559652  L 844.691963 158.567646  L 845.780531 156.195128  L 846.869099 162.187963  L 847.957667 162.135982  L 849.046235 162.560416  L 850.134803 163.301177  L 851.223371 162.351984  L 852.311939 162.233642  L 854.489075 162.437548  L 855.577643 163.347914  L 856.666211 162.901782  L 857.75478 163.101205  L 859.931916 162.799723  L 861.020484 162.783017  L 862.109052 162.948392  L 864.286188 162.635321  L 866.463324 163.034336  L 867.551892 162.895395  L 868.64046 163.204194  L 869.729028 163.301431  L 870.817597 162.707858  L 871.906165 162.644372  L 872.994733 162.849589  L 874.083301 163.265522  L 875.171869 162.896876  L 876.260437 163.140836  L 877.349005 163.233082  L 878.437573 162.710776  L 879.526141 163.156696  L 880.614709 163.185965  L 881.703277 163.412245  L 882.791845 163.453229  L 883.880414 163.876056  L 884.968982 163.781146  L 886.05755 163.564593  L 888.234686 163.39059  L 891.50039 164.437739  L 893.677526 164.428519  L 894.766094 162.35338  L 895.854663 167.520609  L 896.943231 167.247761  L 898.031799 167.513461  L 899.120367 167.562989  L 900.208935 167.91772  L 901.297503 167.79887  L 902.386071 167.920173  L 903.474639 168.222501  L 904.563207 168.237812  L 905.651775 168.379586  L 907.828911 168.035471  L 908.91748 168.420105  L 910.006048 168.624603  L 911.094616 167.840404  L 912.183184 168.61018  L 914.36032 169.080548  L 915.448888 167.778907  L 917.626024 168.376075  L 918.714592 168.380178  L 919.80316 168.537009  L 920.891728 167.872929  L 921.980297 167.822217  L 923.068865 168.492261  L 924.157433 168.635177  L 925.246001 169.068282  L 926.334569 168.006625  L 927.423137 168.400818  L 928.511705 168.209135  L 929.600273 168.379967  L 930.688841 168.232271  L 931.777409 168.340886  L 932.865977 168.170774  L 933.954545 168.501185  L 933.954545 168.501185  "
           clip-path="url(#pdd2da37185)"
           style="fill: none; stroke: #1f77b4; stroke-width: 1.5; stroke-linecap: square"
           id="path344" />
      </g>
      <g
         id="line2d_16"
         inkscape:export-filename="E:\Code\megabouts\megabouts\docs\source\_static\images\thumbnail_traj_preprocessing.png"
         inkscape:export-xdpi="200"
         inkscape:export-ydpi="200">
        <path
           d="M 173.045455 245.710251  L 174.134023 244.919558  L 175.222591 243.855415  L 177.399727 242.320145  L 179.576863 241.04818  L 180.665431 240.746353  L 181.753999 241.037481  L 183.931135 238.946004  L 186.108272 237.158551  L 187.19684 238.540722  L 188.285408 236.960147  L 190.462544 234.378062  L 192.63968 232.363312  L 194.816816 230.872668  L 195.905384 232.450548  L 196.993952 232.983913  L 199.171089 233.600866  L 201.348225 233.992626  L 203.525361 234.211071  L 204.613929 232.431012  L 205.702497 232.804759  L 206.791065 231.216103  L 207.879633 229.871109  L 210.056769 227.699685  L 211.145337 226.833419  L 213.322474 225.499349  L 216.588178 224.176384  L 218.765314 223.444086  L 222.031018 222.63313  L 223.119586 222.490364  L 224.208155 224.476009  L 225.296723 225.295368  L 227.473859 226.569101  L 229.650995 227.407983  L 231.828131 225.617556  L 232.916699 224.248325  L 235.093835 222.100114  L 236.182403 221.167841  L 238.35954 219.757406  L 240.536676 218.604463  L 241.625244 218.141378  L 242.713812 219.899796  L 243.80238 220.590986  L 245.979516 221.612969  L 247.068084 222.038456  L 248.156652 222.343605  L 250.333789 220.516705  L 251.422357 219.789193  L 252.510925 220.391594  L 253.599493 218.345755  L 255.776629 217.565871  L 257.953765 219.303473  L 259.042333 219.978769  L 261.219469 218.736694  L 263.396606 217.690276  L 264.485174 217.261632  L 266.66231 215.524416  L 268.839446 214.123571  L 271.016582 213.163443  L 273.193718 212.503386  L 275.370854 211.99888  L 276.459423 211.831968  L 277.547991 213.900113  L 278.636559 212.601248  L 279.725127 214.513868  L 281.902263 213.433436  L 282.990831 214.219541  L 285.167967 213.232378  L 286.256535 212.855851  L 287.345103 213.713943  L 289.52224 212.751362  L 290.610808 211.107488  L 291.699376 209.707409  L 292.787944 209.73891  L 293.876512 208.481703  L 297.142216 208.951514  L 299.319352 207.852772  L 301.496488 207.113757  L 303.673625 206.659811  L 308.027897 205.90077  L 309.116465 207.910527  L 310.205033 206.576864  L 311.293601 208.525281  L 312.382169 209.34122  L 313.470737 208.736522  L 315.647874 210.185539  L 317.82501 211.245013  L 318.913578 210.269196  L 320.002146 210.764607  L 322.179282 209.05712  L 324.356418 207.789349  L 326.533554 206.917218  L 327.622123 206.550248  L 328.710691 204.915904  L 334.153531 204.406849  L 336.330667 203.101144  L 338.507803 202.081072  L 342.862076 200.576362  L 345.039212 200.083374  L 346.12778 202.111523  L 347.216348 202.986511  L 349.393484 204.377855  L 351.57062 205.335802  L 353.747757 206.03952  L 354.836325 203.67923  L 355.924893 201.667246  L 357.013461 199.942266  L 358.102029 198.5115  L 361.367733 198.633662  L 362.456301 197.850995  L 363.544869 198.023903  L 364.633437 197.503449  L 365.722005 198.637515  L 366.810574 197.192726  L 367.899142 196.161532  L 368.98771 194.953223  L 370.076278 195.293987  L 371.164846 195.504288  L 372.253414 196.645259  L 373.341982 197.617991  L 374.43055 198.04667  L 375.519118 200.347779  L 376.607686 200.130744  L 377.696254 199.102948  L 378.784822 196.63788  L 379.873391 195.233972  L 380.961959 193.005274  L 382.050527 191.89926  L 384.227663 192.173196  L 386.404799 189.626435  L 387.493367 189.784841  L 388.581935 187.433365  L 389.670503 184.310216  L 394.024776 176.246459  L 395.113344 174.812575  L 396.201912 172.640858  L 397.29048 172.914909  L 398.379048 170.290396  L 399.467616 167.962627  L 400.556184 165.974512  L 401.644752 164.233185  L 402.73332 162.811542  L 403.821888 161.820712  L 405.999025 158.526299  L 408.176161 156.091386  L 410.353297 154.025685  L 411.441865 155.385955  L 413.619001 153.679774  L 415.796137 152.384514  L 416.884705 151.149595  L 419.061842 149.175186  L 421.238978 147.707774  L 423.416114 146.736846  L 425.59325 145.876889  L 427.770386 145.237464  L 429.947522 144.751291  L 431.036091 146.724179  L 432.124659 147.480689  L 434.301795 146.43202  L 435.390363 144.68213  L 437.567499 144.312685  L 439.744635 142.773427  L 443.010339 141.112062  L 447.364612 139.590521  L 448.45318 139.336402  L 449.541748 139.967797  L 451.718884 139.429054  L 452.807452 140.464795  L 453.89602 140.049683  L 454.984588 138.433675  L 456.073156 138.355611  L 457.161725 137.601114  L 458.250293 138.839605  L 459.338861 137.957495  L 461.515997 136.664802  L 463.693133 135.588142  L 466.958837 134.605975  L 469.135973 134.088081  L 471.31311 133.78472  L 481.110222 133.057504  L 482.19879 133.079508  L 484.375927 132.853759  L 487.641631 132.699859  L 488.730199 132.684475  L 489.818767 132.514531  L 490.907335 132.475894  L 491.995903 133.305406  L 494.173039 133.046477  L 495.261607 134.26952  L 497.438744 136.087977  L 499.61588 134.990906  L 501.793016 132.971093  L 502.881584 132.117375  L 505.05872 130.859724  L 507.235856 129.888264  L 510.501561 128.903288  L 511.590129 128.60652  L 518.121537 127.657485  L 519.210105 128.45618  L 520.298673 126.802958  L 521.387242 125.499596  L 522.47581 123.474599  L 523.564378 120.722248  L 524.652946 119.082513  L 525.741514 119.173775  L 526.830082 120.515505  L 529.007218 126.726732  L 530.095786 127.774845  L 531.184354 128.138403  L 532.272922 126.359386  L 533.36149 122.948172  L 536.627195 110.507116  L 537.715763 110.81749  L 538.804331 111.587964  L 539.892899 114.226793  L 540.981467 113.918199  L 542.070035 112.619011  L 543.158603 110.682472  L 544.247171 108.129754  L 545.335739 105.145519  L 546.424307 101.629652  L 547.512876 102.517304  L 548.601444 101.634078  L 549.690012 101.916459  L 551.867148 99.63049  L 552.955716 99.965645  L 554.044284 96.832149  L 555.132852 94.594807  L 556.22142 91.372967  L 558.398556 86.057185  L 559.487124 86.325842  L 561.664261 82.736635  L 562.752829 81.10618  L 563.841397 79.759558  L 564.929965 81.441822  L 566.018533 82.010307  L 568.195669 80.415508  L 570.372805 79.181333  L 572.549941 75.812243  L 573.63851 74.466103  L 574.727078 73.308046  L 576.904214 71.41207  L 577.992782 70.66932  L 579.08135 71.671706  L 580.169918 70.309058  L 581.258486 70.436074  L 582.347054 69.192994  L 584.52419 69.758609  L 585.612758 69.956598  L 587.789895 67.846082  L 589.967031 66.281324  L 591.055599 65.639705  L 593.232735 64.687494  L 594.321303 65.521602  L 596.498439 64.401519  L 598.675575 63.514214  L 599.764144 64.49909  L 600.852712 66.85145  L 601.94128 66.692299  L 603.029848 67.858291  L 606.295552 67.024044  L 609.561256 66.364151  L 610.649824 64.912166  L 611.738393 65.029532  L 612.826961 63.746761  L 613.915529 63.920376  L 616.092665 61.870737  L 617.181233 62.333694  L 619.358369 60.604057  L 621.535505 61.690545  L 623.712641 60.118055  L 624.80121 60.77301  L 626.978346 59.519043  L 628.066914 61.526016  L 629.155482 63.253958  L 630.24405 64.691361  L 631.332618 63.382547  L 632.421186 64.836781  L 633.509754 66.019584  L 634.598322 67.026494  L 635.68689 65.35677  L 637.864027 67.781942  L 638.952595 68.074744  L 640.041163 66.655512  L 641.129731 67.787746  L 643.306867 68.155416  L 644.395435 66.912169  L 648.749707 67.682894  L 649.838275 66.564298  L 652.015412 67.052213  L 653.10398 66.031349  L 654.192548 66.378376  L 655.281116 65.359132  L 657.458252 63.821032  L 658.54682 64.437761  L 660.723956 65.377969  L 661.812524 63.213533  L 662.901092 63.802969  L 663.989661 63.08092  L 665.078229 61.217004  L 667.255365 62.947999  L 668.343933 61.112823  L 669.432501 59.555868  L 670.521069 58.204631  L 671.609637 59.636314  L 672.698205 59.541587  L 673.786773 60.706929  L 674.875341 59.15444  L 675.963909 57.847375  L 678.141046 55.764698  L 680.318182 56.687112  L 682.495318 54.977033  L 684.672454 53.713564  L 685.761022 54.520785  L 686.84959 56.444363  L 689.026726 54.843507  L 691.203863 53.629503  L 692.292431 53.156166  L 694.469567 54.81846  L 695.558135 56.693147  L 696.646703 55.785101  L 698.823839 54.341079  L 699.912407 53.777068  L 701.000975 55.828264  L 702.089544 56.2824  L 703.178112 58.185332  L 704.26668 59.017143  L 705.355248 58.335303  L 707.532384 59.585503  L 709.70952 60.421764  L 712.975224 61.256099  L 714.063792 60.154305  L 716.240929 58.397175  L 717.329497 56.445892  L 718.418065 54.785164  L 719.506633 53.372418  L 721.683769 51.087683  L 722.772337 52.727151  L 723.860905 51.496309  L 724.949473 53.416974  L 726.038041 54.932011  L 727.126609 59.735149  L 729.303746 73.379688  L 730.392314 80.437131  L 731.480882 83.621551  L 732.56945 84.915018  L 733.658018 85.825201  L 734.746586 84.995915  L 735.835154 83.142882  L 736.923722 81.525321  L 739.100858 86.246499  L 741.277995 96.494086  L 742.366563 99.080368  L 744.543699 102.428771  L 745.632267 103.245461  L 746.720835 102.821075  L 747.809403 104.761512  L 749.986539 112.987996  L 751.075107 114.715374  L 752.163675 116.939483  L 754.340812 120.173666  L 756.517948 121.072917  L 757.606516 124.208031  L 758.695084 124.210062  L 759.783652 124.878919  L 761.960788 127.595105  L 763.049356 128.746212  L 765.226492 130.577435  L 766.31506 131.110233  L 768.492197 133.705232  L 769.580765 134.729673  L 771.757901 136.238031  L 773.935037 137.386464  L 778.289309 139.261165  L 779.377877 139.224991  L 780.466446 140.209477  L 783.73215 142.384084  L 790.263558 145.301386  L 791.352126 145.354038  L 792.440694 146.319505  L 794.617831 147.833448  L 797.883535 149.628034  L 800.060671 150.418306  L 805.503512 151.649846  L 808.769216 152.089816  L 809.857784 151.833606  L 810.946352 152.519993  L 812.03492 153.452305  L 813.123488 152.947904  L 815.300624 153.899085  L 817.47776 154.439647  L 820.743465 155.194084  L 825.097737 155.864239  L 828.363441 156.30331  L 829.452009 156.498154  L 830.540577 156.507092  L 835.983418 157.175693  L 841.426258 157.697357  L 844.691963 158.03114  L 845.780531 157.751704  L 847.957667 158.991403  L 850.134803 160.10786  L 852.311939 160.720965  L 858.843348 162.087306  L 863.19762 162.442476  L 867.551892 162.644902  L 870.817597 162.800382  L 872.994733 162.78774  L 876.260437 162.907829  L 879.526141 162.955861  L 882.791845 163.11562  L 886.05755 163.353015  L 890.411822 163.519238  L 893.677526 163.87949  L 894.766094 163.64722  L 895.854663 164.236739  L 899.120367 165.495181  L 901.297503 166.158384  L 905.651775 167.153961  L 910.006048 167.737506  L 911.094616 167.753166  L 914.36032 168.192621  L 916.537456 168.119086  L 920.891728 168.187944  L 923.068865 168.187069  L 926.334569 168.322333  L 933.954545 168.325096  L 933.954545 168.325096  "
           clip-path="url(#pdd2da37185)"
           style="fill: none; stroke: #d62728; stroke-width: 1.5; stroke-linecap: square"
           id="path347" />
      </g>
      <g
         id="patch_3"
         inkscape:export-filename="E:\Code\megabouts\megabouts\docs\source\_static\images\thumbnail_traj_preprocessing.png"
         inkscape:export-xdpi="200"
         inkscape:export-ydpi="200">
        <path
           d="M 135 256.32  L 135 34.56  "
           style="fill: none; stroke: #000000; stroke-width: 0.8; stroke-linejoin: miter; stroke-linecap: square"
           id="path350" />
      </g>
      <g
         id="patch_4"
         inkscape:export-filename="E:\Code\megabouts\megabouts\docs\source\_static\images\thumbnail_traj_preprocessing.png"
         inkscape:export-xdpi="200"
         inkscape:export-ydpi="200">
        <path
           d="M 972 256.32  L 972 34.56  "
           style="fill: none; stroke: #000000; stroke-width: 0.8; stroke-linejoin: miter; stroke-linecap: square"
           id="path353" />
      </g>
      <g
         id="patch_5"
         inkscape:export-filename="E:\Code\megabouts\megabouts\docs\source\_static\images\thumbnail_traj_preprocessing.png"
         inkscape:export-xdpi="200"
         inkscape:export-ydpi="200">
        <path
           d="M 135 256.32  L 972 256.32  "
           style="fill: none; stroke: #000000; stroke-width: 0.8; stroke-linejoin: miter; stroke-linecap: square"
           id="path356" />
      </g>
      <g
         id="patch_6"
         inkscape:export-filename="E:\Code\megabouts\megabouts\docs\source\_static\images\thumbnail_traj_preprocessing.png"
         inkscape:export-xdpi="200"
         inkscape:export-ydpi="200">
        <path
           d="M 135 34.56  L 972 34.56  "
           style="fill: none; stroke: #000000; stroke-width: 0.8; stroke-linejoin: miter; stroke-linecap: square"
           id="path359" />
      </g>
    </g>
  </g>
  <defs
     id="defs550">
    <clipPath
       id="pdd2da37185">
      <rect
         x="135"
         y="34.56"
         width="837"
         height="221.76"
         id="rect547" />
    </clipPath>
  </defs>
</svg>
